<?xml version="1.0" encoding="UTF-8"?>
<svg width="64px" height="64px" viewBox="0 0 64 64" version="1.1" xmlns="http://www.w3.org/2000/svg" xmlns:xlink="http://www.w3.org/1999/xlink">
    <title>数据安全评估</title>
    <g id="数据安全评估" stroke="none" stroke-width="1" fill="none" fill-rule="evenodd">
        <g id="编组-43">
            <rect id="矩形" fill="#D8D8D8" opacity="0" x="0" y="0" width="64" height="64"></rect>
            <g id="xinyongpinggu" transform="translate(4.000000, 0.000000)" fill-rule="nonzero">
                <path d="M55.8694063,29.184 C55.8694063,50.5330526 27.9528439,64 27.9528439,64 C27.9528439,64 0.0545067301,50.6161404 0.0545067301,29.184 L0.0545067301,8.03031581 L27.9528439,0 L55.8694063,8.03031581 L55.8694063,29.184 Z" id="路径" fill="#85A5FF"></path>
                <path d="M46.747657,23.4318596 L46.747657,5.36926319 L27.3878604,0 L8.02806381,5.78694737 L8.02806381,22.8311579 C8.02806381,35.7265965 19.2981172,45.9531228 27.3924167,51.874807 C35.4696301,45.9531228 46.747657,36.3272982 46.747657,23.4318596 Z" id="路径" fill="#1F5AFF"></path>
                <path d="M33.5343338,20.2105263 L21.0967239,41.4450526 C20.8747498,41.8241526 20.4495113,42.0415423 20.0072716,42.0020007 C19.5650319,41.9624591 19.186417,41.6731951 19.037268,41.2609123 L16.8502352,35.2213333 L10.4508861,36.3744561 C10.0140175,36.4533408 9.57047277,36.2747361 9.31459552,35.9168993 C9.05871828,35.5590626 9.03717646,35.0872577 9.25940883,34.7082105 L21.6970188,13.4736842 L33.5343338,20.2105263 L33.5343338,20.2105263 Z" id="路径" fill="#FFFFFF"></path>
                <path d="M33.5343338,13.4736842 L45.9730829,34.7082105 C46.1953152,35.0872576 46.1737734,35.5590626 45.9178962,35.9168993 C45.662019,36.274736 45.2184743,36.4533408 44.7816057,36.3744561 L38.3811175,35.2213333 L36.1940847,41.2620351 C36.0446762,41.6741803 35.6659275,41.9631868 35.2237099,42.0024853 C34.7814923,42.0417838 34.3564111,41.8242113 34.1346288,41.4450526 L21.6970188,20.2105263 L33.5343338,13.4736842 L33.5343338,13.4736842 Z" id="路径" fill="#FFFFFF"></path>
                <path d="M16.0016209,19.6491228 C16.0016209,26.1602693 21.3564456,31.4385965 27.9619565,31.4385965 C34.5674675,31.4385965 39.9222921,26.1602693 39.9222921,19.6491228 C39.9222921,13.1379763 34.5674675,7.85964913 27.9619565,7.85964913 C21.3564456,7.85964913 16.0016209,13.1379763 16.0016209,19.6491228 Z" id="路径" fill="#4DEEFF"></path>
                <path d="M20.5579392,19.6491228 C20.5579392,23.6798326 23.8728307,26.9473684 27.9619565,26.9473684 C32.0510824,26.9473684 35.3659738,23.6798326 35.3659738,19.6491228 C35.3659738,15.6184131 32.0510824,12.3508772 27.9619565,12.3508772 C23.8728307,12.3508772 20.5579392,15.6184131 20.5579392,19.6491228 L20.5579392,19.6491228 Z" id="路径" fill="#FFFFFF"></path>
            </g>
        </g>
    </g>
</svg>